<?xml version='1.0' encoding='UTF-8' standalone='no'?>
<svg xmlns:xlink="http://www.w3.org/1999/xlink" viewBox="0 0 2579 968" height="968pt" xmlns="http://www.w3.org/2000/svg" width="2579pt">
 <title>gl2ps_renderer figure</title>
 <desc>
Creator: GL2PS 1.4.2, (C) 1999-2020 C. Geuzaine
For: Octave
CreationDate: Thu Mar 10 15:12:48 2022
</desc>
 <defs/>
 <polygon fill="#ffffff" points="0,0 2579,0 2579,968 0,968"/>
 <g>
  <polygon shape-rendering="crispEdges" fill="#ffffff" points="0,968 2579,968 2579,0 0,0"/>
  <clipPath id="cp002579968">
   <polygon points="0,968 2579,968 2579,0 0,0"/>
  </clipPath>
  <g clip-path="url(#cp002579968)">
   <polygon shape-rendering="crispEdges" fill="#ffffff" points="335.369,861.664 2334.69,861.664 2334.69,72.6121 335.369,72.6121"/>
   <text font-family="FreeSans" font-weight="bold" font-style="normal" xml:space="preserve" transform="translate(1127.03,62.6121) rotate(-0,208,0)" font-size="11">
    <tspan y="-22" x="146 153 156 159 165 172 178 188 194 197 200 206 212 218 224 " fill="rgb(0,0,0)">Filename: 50000</tspan>
    <tspan y="-20" x="230 " fill="rgb(0,0,0)" font-size="7.7">c</tspan>
    <tspan y="-22" x="234 241 248 251 257 263 " fill="rgb(0,0,0)">pu.csv</tspan>
    <tspan y="-6" x="0 10 16 22 25 28 34 40 46 52 58 65 71 74 77 87 90 97 100 103 109 115 121 128 134 137 140 150 156 162 169 172 175 181 187 193 196 202 208 214 221 227 230 233 241 248 255 261 267 270 276 282 288 291 298 304 307 310 316 322 328 331 334 342 348 351 358 367 370 376 382 388 391 398 404 407 410 " fill="rgb(0,0,0)">Max: 15209us; Min: 318us; Mean: 359.168us; Above 800 us: 129; Below 300 us: 0</tspan>
   </text>
   <polygon shape-rendering="crispEdges" fill="#440154" points="409.854,861.664 409.854,860.243 378.492,860.243 378.492,861.664"/>
   <polygon shape-rendering="crispEdges" fill="#440154" points="449.056,861.664 449.056,512.942 417.694,512.942 417.694,861.664"/>
   <polygon shape-rendering="crispEdges" fill="#440154" points="488.258,861.664 488.258,248.216 456.896,248.216 456.896,861.664"/>
   <polygon shape-rendering="crispEdges" fill="#440154" points="527.461,861.664 527.461,447.569 496.099,447.569 496.099,861.664"/>
   <polygon shape-rendering="crispEdges" fill="#440154" points="566.663,861.664 566.663,656.076 535.301,656.076 535.301,861.664"/>
   <polygon shape-rendering="crispEdges" fill="#440154" points="605.865,861.664 605.865,756.207 574.503,756.207 574.503,861.664"/>
   <polygon shape-rendering="crispEdges" fill="#440154" points="645.067,861.664 645.067,815.504 613.706,815.504 613.706,861.664"/>
   <polygon shape-rendering="crispEdges" fill="#440154" points="684.27,861.664 684.27,842.687 652.908,842.687 652.908,861.664"/>
   <polygon shape-rendering="crispEdges" fill="#440154" points="723.472,861.664 723.472,849.512 692.11,849.512 692.11,861.664"/>
   <polygon shape-rendering="crispEdges" fill="#440154" points="762.674,861.664 762.674,850.972 731.312,850.972 731.312,861.664"/>
   <polygon shape-rendering="crispEdges" fill="#440154" points="801.877,861.664 801.877,845.646 770.515,845.646 770.515,861.664"/>
   <polygon shape-rendering="crispEdges" fill="#440154" points="841.079,861.664 841.079,840.556 809.717,840.556 809.717,861.664"/>
   <polygon shape-rendering="crispEdges" fill="#440154" points="880.281,861.664 880.281,835.507 848.919,835.507 848.919,861.664"/>
   <polygon shape-rendering="crispEdges" fill="#440154" points="919.484,861.664 919.484,838.071 888.122,838.071 888.122,861.664"/>
   <polygon shape-rendering="crispEdges" fill="#440154" points="958.686,861.664 958.686,841.701 927.324,841.701 927.324,861.664"/>
   <polygon shape-rendering="crispEdges" fill="#440154" points="997.888,861.664 997.888,842.884 966.526,842.884 966.526,861.664"/>
   <polygon shape-rendering="crispEdges" fill="#440154" points="1037.09,861.664 1037.09,845.961 1005.73,845.961 1005.73,861.664"/>
   <polygon shape-rendering="crispEdges" fill="#440154" points="1076.29,861.664 1076.29,848.131 1044.93,848.131 1044.93,861.664"/>
   <polygon shape-rendering="crispEdges" fill="#440154" points="1115.49,861.664 1115.49,850.735 1084.13,850.735 1084.13,861.664"/>
   <polygon shape-rendering="crispEdges" fill="#440154" points="1154.7,861.664 1154.7,853.576 1123.34,853.576 1123.34,861.664"/>
   <polygon shape-rendering="crispEdges" fill="#440154" points="1193.9,861.664 1193.9,857.127 1162.54,857.127 1162.54,861.664"/>
   <polygon shape-rendering="crispEdges" fill="#440154" points="1233.1,861.664 1233.1,859.02 1201.74,859.02 1201.74,861.664"/>
   <polygon shape-rendering="crispEdges" fill="#440154" points="1272.3,861.664 1272.3,860.046 1240.94,860.046 1240.94,861.664"/>
   <polygon shape-rendering="crispEdges" fill="#440154" points="1311.51,861.664 1311.51,860.598 1280.14,860.598 1280.14,861.664"/>
   <polygon shape-rendering="crispEdges" fill="#440154" points="1350.71,861.664 1350.71,860.953 1319.35,860.953 1319.35,861.664"/>
   <polygon shape-rendering="crispEdges" fill="#440154" points="1389.91,861.664 1389.91,860.914 1358.55,860.914 1358.55,861.664"/>
   <polygon shape-rendering="crispEdges" fill="#440154" points="1429.11,861.664 1429.11,860.953 1397.75,860.953 1397.75,861.664"/>
   <polygon shape-rendering="crispEdges" fill="#440154" points="1468.32,861.664 1468.32,860.717 1436.95,860.717 1436.95,861.664"/>
   <polygon shape-rendering="crispEdges" fill="#440154" points="1507.52,861.664 1507.52,861.151 1476.16,861.151 1476.16,861.664"/>
   <polygon shape-rendering="crispEdges" fill="#440154" points="1546.72,861.664 1546.72,861.19 1515.36,861.19 1515.36,861.664"/>
   <polygon shape-rendering="crispEdges" fill="#440154" points="1585.92,861.664 1585.92,861.19 1554.56,861.19 1554.56,861.664"/>
   <polygon shape-rendering="crispEdges" fill="#440154" points="1625.12,861.664 1625.12,861.19 1593.76,861.19 1593.76,861.664"/>
   <polygon shape-rendering="crispEdges" fill="#440154" points="1664.33,861.664 1664.33,861.387 1632.97,861.387 1632.97,861.664"/>
   <polygon shape-rendering="crispEdges" fill="#440154" points="1703.53,861.664 1703.53,861.466 1672.17,861.466 1672.17,861.664"/>
   <polygon shape-rendering="crispEdges" fill="#440154" points="1742.73,861.664 1742.73,861.585 1711.37,861.585 1711.37,861.664"/>
   <polygon shape-rendering="crispEdges" fill="#440154" points="1781.93,861.664 1781.93,861.466 1750.57,861.466 1750.57,861.664"/>
   <polygon shape-rendering="crispEdges" fill="#440154" points="1821.14,861.664 1821.14,861.466 1789.77,861.466 1789.77,861.664"/>
   <polygon shape-rendering="crispEdges" fill="#440154" points="1860.34,861.664 1860.34,861.545 1828.98,861.545 1828.98,861.664"/>
   <polygon shape-rendering="crispEdges" fill="#440154" points="1899.54,861.664 1899.54,861.585 1868.18,861.585 1868.18,861.664"/>
   <polygon shape-rendering="crispEdges" fill="#440154" points="1938.74,861.664 1938.74,861.466 1907.38,861.466 1907.38,861.664"/>
   <polygon shape-rendering="crispEdges" fill="#440154" points="1977.95,861.664 1977.95,861.585 1946.58,861.585 1946.58,861.664"/>
   <polygon shape-rendering="crispEdges" fill="#440154" points="2017.15,861.664 2017.15,861.624 1985.79,861.624 1985.79,861.664"/>
   <polygon shape-rendering="crispEdges" fill="#440154" points="2056.35,861.664 2056.35,861.585 2024.99,861.585 2024.99,861.664"/>
   <polygon shape-rendering="crispEdges" fill="#440154" points="2095.55,861.664 2095.55,861.466 2064.19,861.466 2064.19,861.664"/>
   <polygon shape-rendering="crispEdges" fill="#440154" points="2134.75,861.664 2134.75,861.585 2103.39,861.585 2103.39,861.664"/>
   <polygon shape-rendering="crispEdges" fill="#440154" points="2173.96,861.664 2173.96,861.585 2142.59,861.585 2142.59,861.664"/>
   <polygon shape-rendering="crispEdges" fill="#440154" points="2213.16,861.664 2213.16,861.624 2181.8,861.624 2181.8,861.664"/>
   <polygon shape-rendering="crispEdges" fill="#440154" points="2252.36,861.664 2252.36,861.545 2221,861.545 2221,861.664"/>
   <polygon shape-rendering="crispEdges" fill="#440154" points="2330.77,861.664 2330.77,856.574 2299.4,856.574 2299.4,861.664"/>
   <polyline stroke="#000000" stroke-linejoin="miter" stroke-width="0.5" stroke-linecap="butt" fill="none" points="409.854,860.243 378.492,860.243 378.492,861.664 409.854,861.664 409.854,860.243"/>
   <polyline stroke="#000000" stroke-linejoin="miter" stroke-width="0.5" stroke-linecap="butt" fill="none" points="449.056,512.942 417.694,512.942 417.694,861.664 449.056,861.664 449.056,512.942"/>
   <polyline stroke="#000000" stroke-linejoin="miter" stroke-width="0.5" stroke-linecap="butt" fill="none" points="488.258,248.216 456.896,248.216 456.896,861.664 488.258,861.664 488.258,248.216"/>
   <polyline stroke="#000000" stroke-linejoin="miter" stroke-width="0.5" stroke-linecap="butt" fill="none" points="527.461,447.569 496.099,447.569 496.099,861.664 527.461,861.664 527.461,447.569"/>
   <polyline stroke="#000000" stroke-linejoin="miter" stroke-width="0.5" stroke-linecap="butt" fill="none" points="566.663,656.076 535.301,656.076 535.301,861.664 566.663,861.664 566.663,656.076"/>
   <polyline stroke="#000000" stroke-linejoin="miter" stroke-width="0.5" stroke-linecap="butt" fill="none" points="605.865,756.207 574.503,756.207 574.503,861.664 605.865,861.664 605.865,756.207"/>
   <polyline stroke="#000000" stroke-linejoin="miter" stroke-width="0.5" stroke-linecap="butt" fill="none" points="645.067,815.504 613.706,815.504 613.706,861.664 645.067,861.664 645.067,815.504"/>
   <polyline stroke="#000000" stroke-linejoin="miter" stroke-width="0.5" stroke-linecap="butt" fill="none" points="684.27,842.687 652.908,842.687 652.908,861.664 684.27,861.664 684.27,842.687"/>
   <polyline stroke="#000000" stroke-linejoin="miter" stroke-width="0.5" stroke-linecap="butt" fill="none" points="723.472,849.512 692.11,849.512 692.11,861.664 723.472,861.664 723.472,849.512"/>
   <polyline stroke="#000000" stroke-linejoin="miter" stroke-width="0.5" stroke-linecap="butt" fill="none" points="762.674,850.972 731.312,850.972 731.312,861.664 762.674,861.664 762.674,850.972"/>
   <polyline stroke="#000000" stroke-linejoin="miter" stroke-width="0.5" stroke-linecap="butt" fill="none" points="801.877,845.646 770.515,845.646 770.515,861.664 801.877,861.664 801.877,845.646"/>
   <polyline stroke="#000000" stroke-linejoin="miter" stroke-width="0.5" stroke-linecap="butt" fill="none" points="841.079,840.556 809.717,840.556 809.717,861.664 841.079,861.664 841.079,840.556"/>
   <polyline stroke="#000000" stroke-linejoin="miter" stroke-width="0.5" stroke-linecap="butt" fill="none" points="880.281,835.507 848.919,835.507 848.919,861.664 880.281,861.664 880.281,835.507"/>
   <polyline stroke="#000000" stroke-linejoin="miter" stroke-width="0.5" stroke-linecap="butt" fill="none" points="919.484,838.071 888.122,838.071 888.122,861.664 919.484,861.664 919.484,838.071"/>
   <polyline stroke="#000000" stroke-linejoin="miter" stroke-width="0.5" stroke-linecap="butt" fill="none" points="958.686,841.701 927.324,841.701 927.324,861.664 958.686,861.664 958.686,841.701"/>
   <polyline stroke="#000000" stroke-linejoin="miter" stroke-width="0.5" stroke-linecap="butt" fill="none" points="997.888,842.884 966.526,842.884 966.526,861.664 997.888,861.664 997.888,842.884"/>
   <polyline stroke="#000000" stroke-linejoin="miter" stroke-width="0.5" stroke-linecap="butt" fill="none" points="1037.09,845.961 1005.73,845.961 1005.73,861.664 1037.09,861.664 1037.09,845.961"/>
   <polyline stroke="#000000" stroke-linejoin="miter" stroke-width="0.5" stroke-linecap="butt" fill="none" points="1076.29,848.131 1044.93,848.131 1044.93,861.664 1076.29,861.664 1076.29,848.131"/>
   <polyline stroke="#000000" stroke-linejoin="miter" stroke-width="0.5" stroke-linecap="butt" fill="none" points="1115.49,850.735 1084.13,850.735 1084.13,861.664 1115.49,861.664 1115.49,850.735"/>
   <polyline stroke="#000000" stroke-linejoin="miter" stroke-width="0.5" stroke-linecap="butt" fill="none" points="1154.7,853.576 1123.34,853.576 1123.34,861.664 1154.7,861.664 1154.7,853.576"/>
   <polyline stroke="#000000" stroke-linejoin="miter" stroke-width="0.5" stroke-linecap="butt" fill="none" points="1193.9,857.127 1162.54,857.127 1162.54,861.664 1193.9,861.664 1193.9,857.127"/>
   <polyline stroke="#000000" stroke-linejoin="miter" stroke-width="0.5" stroke-linecap="butt" fill="none" points="1233.1,859.02 1201.74,859.02 1201.74,861.664 1233.1,861.664 1233.1,859.02"/>
   <polyline stroke="#000000" stroke-linejoin="miter" stroke-width="0.5" stroke-linecap="butt" fill="none" points="1272.3,860.046 1240.94,860.046 1240.94,861.664 1272.3,861.664 1272.3,860.046"/>
   <polyline stroke="#000000" stroke-linejoin="miter" stroke-width="0.5" stroke-linecap="butt" fill="none" points="1311.51,860.598 1280.14,860.598 1280.14,861.664 1311.51,861.664 1311.51,860.598"/>
   <polyline stroke="#000000" stroke-linejoin="miter" stroke-width="0.5" stroke-linecap="butt" fill="none" points="1350.71,860.953 1319.35,860.953 1319.35,861.664 1350.71,861.664 1350.71,860.953"/>
   <polyline stroke="#000000" stroke-linejoin="miter" stroke-width="0.5" stroke-linecap="butt" fill="none" points="1389.91,860.914 1358.55,860.914 1358.55,861.664 1389.91,861.664 1389.91,860.914"/>
   <polyline stroke="#000000" stroke-linejoin="miter" stroke-width="0.5" stroke-linecap="butt" fill="none" points="1429.11,860.953 1397.75,860.953 1397.75,861.664 1429.11,861.664 1429.11,860.953"/>
   <polyline stroke="#000000" stroke-linejoin="miter" stroke-width="0.5" stroke-linecap="butt" fill="none" points="1468.32,860.717 1436.95,860.717 1436.95,861.664 1468.32,861.664 1468.32,860.717"/>
   <polyline stroke="#000000" stroke-linejoin="miter" stroke-width="0.5" stroke-linecap="butt" fill="none" points="1507.52,861.151 1476.16,861.151 1476.16,861.664 1507.52,861.664 1507.52,861.151"/>
   <polyline stroke="#000000" stroke-linejoin="miter" stroke-width="0.5" stroke-linecap="butt" fill="none" points="1546.72,861.19 1515.36,861.19 1515.36,861.664 1546.72,861.664 1546.72,861.19"/>
   <polyline stroke="#000000" stroke-linejoin="miter" stroke-width="0.5" stroke-linecap="butt" fill="none" points="1585.92,861.19 1554.56,861.19 1554.56,861.664 1585.92,861.664 1585.92,861.19"/>
   <polyline stroke="#000000" stroke-linejoin="miter" stroke-width="0.5" stroke-linecap="butt" fill="none" points="1625.12,861.19 1593.76,861.19 1593.76,861.664 1625.12,861.664 1625.12,861.19"/>
   <polyline stroke="#000000" stroke-linejoin="miter" stroke-width="0.5" stroke-linecap="butt" fill="none" points="1664.33,861.387 1632.97,861.387 1632.97,861.664 1664.33,861.664 1664.33,861.387"/>
   <polyline stroke="#000000" stroke-linejoin="miter" stroke-width="0.5" stroke-linecap="butt" fill="none" points="1703.53,861.466 1672.17,861.466 1672.17,861.664 1703.53,861.664 1703.53,861.466"/>
   <polyline stroke="#000000" stroke-linejoin="miter" stroke-width="0.5" stroke-linecap="butt" fill="none" points="1742.73,861.585 1711.37,861.585 1711.37,861.664 1742.73,861.664 1742.73,861.585"/>
   <polyline stroke="#000000" stroke-linejoin="miter" stroke-width="0.5" stroke-linecap="butt" fill="none" points="1781.93,861.466 1750.57,861.466 1750.57,861.664 1781.93,861.664 1781.93,861.466"/>
   <polyline stroke="#000000" stroke-linejoin="miter" stroke-width="0.5" stroke-linecap="butt" fill="none" points="1821.14,861.466 1789.77,861.466 1789.77,861.664 1821.14,861.664 1821.14,861.466"/>
   <polyline stroke="#000000" stroke-linejoin="miter" stroke-width="0.5" stroke-linecap="butt" fill="none" points="1860.34,861.545 1828.98,861.545 1828.98,861.664 1860.34,861.664 1860.34,861.545"/>
   <polyline stroke="#000000" stroke-linejoin="miter" stroke-width="0.5" stroke-linecap="butt" fill="none" points="1899.54,861.585 1868.18,861.585 1868.18,861.664 1899.54,861.664 1899.54,861.585"/>
   <polyline stroke="#000000" stroke-linejoin="miter" stroke-width="0.5" stroke-linecap="butt" fill="none" points="1938.74,861.466 1907.38,861.466 1907.38,861.664 1938.74,861.664 1938.74,861.466"/>
   <polyline stroke="#000000" stroke-linejoin="miter" stroke-width="0.5" stroke-linecap="butt" fill="none" points="1977.95,861.585 1946.58,861.585 1946.58,861.664 1977.95,861.664 1977.95,861.585"/>
   <polyline stroke="#000000" stroke-linejoin="miter" stroke-width="0.5" stroke-linecap="butt" fill="none" points="2017.15,861.624 1985.79,861.624 1985.79,861.664 2017.15,861.664 2017.15,861.624"/>
   <polyline stroke="#000000" stroke-linejoin="miter" stroke-width="0.5" stroke-linecap="butt" fill="none" points="2056.35,861.585 2024.99,861.585 2024.99,861.664 2056.35,861.664 2056.35,861.585"/>
   <polyline stroke="#000000" stroke-linejoin="miter" stroke-width="0.5" stroke-linecap="butt" fill="none" points="2095.55,861.466 2064.19,861.466 2064.19,861.664 2095.55,861.664 2095.55,861.466"/>
   <polyline stroke="#000000" stroke-linejoin="miter" stroke-width="0.5" stroke-linecap="butt" fill="none" points="2134.75,861.585 2103.39,861.585 2103.39,861.664 2134.75,861.664 2134.75,861.585"/>
   <polyline stroke="#000000" stroke-linejoin="miter" stroke-width="0.5" stroke-linecap="butt" fill="none" points="2173.96,861.585 2142.59,861.585 2142.59,861.664 2173.96,861.664 2173.96,861.585"/>
   <polyline stroke="#000000" stroke-linejoin="miter" stroke-width="0.5" stroke-linecap="butt" fill="none" points="2213.16,861.624 2181.8,861.624 2181.8,861.664 2213.16,861.664 2213.16,861.624"/>
   <polyline stroke="#000000" stroke-linejoin="miter" stroke-width="0.5" stroke-linecap="butt" fill="none" points="2252.36,861.545 2221,861.545 2221,861.664 2252.36,861.664 2252.36,861.545"/>
   <polyline stroke="#000000" stroke-linejoin="miter" stroke-width="0.5" stroke-linecap="butt" fill="none" points="2330.77,856.574 2299.4,856.574 2299.4,861.664 2330.77,861.664 2330.77,856.574"/>
   <polyline stroke="#000000" stroke-linejoin="round" stroke-width="0.5" stroke-linecap="butt" fill="none" points="335.369,861.664 2334.69,861.664"/>
   <polyline stroke="#191919" stroke-linejoin="round" stroke-width="0.5" stroke-dasharray="1,3,1,3,1,3,1,3" stroke-opacity="0.25" stroke-linecap="butt" fill="none" points="413.774,861.664 413.774,72.6121"/>
   <polyline stroke="#191919" stroke-linejoin="round" stroke-width="0.5" stroke-dasharray="1,3,1,3,1,3,1,3" stroke-opacity="0.25" stroke-linecap="butt" fill="none" points="492.179,861.664 492.179,72.6121"/>
   <polyline stroke="#191919" stroke-linejoin="round" stroke-width="0.5" stroke-dasharray="1,3,1,3,1,3,1,3" stroke-opacity="0.25" stroke-linecap="butt" fill="none" points="570.583,861.664 570.583,72.6121"/>
   <polyline stroke="#191919" stroke-linejoin="round" stroke-width="0.5" stroke-dasharray="1,3,1,3,1,3,1,3" stroke-opacity="0.25" stroke-linecap="butt" fill="none" points="648.988,861.664 648.988,72.6121"/>
   <polyline stroke="#191919" stroke-linejoin="round" stroke-width="0.5" stroke-dasharray="1,3,1,3,1,3,1,3" stroke-opacity="0.25" stroke-linecap="butt" fill="none" points="805.797,861.664 805.797,72.6121"/>
   <polyline stroke="#191919" stroke-linejoin="round" stroke-width="0.5" stroke-dasharray="1,3,1,3,1,3,1,3" stroke-opacity="0.25" stroke-linecap="butt" fill="none" points="884.201,861.664 884.201,72.6121"/>
   <polyline stroke="#191919" stroke-linejoin="round" stroke-width="0.5" stroke-dasharray="1,3,1,3,1,3,1,3" stroke-opacity="0.25" stroke-linecap="butt" fill="none" points="962.606,861.664 962.606,72.6121"/>
   <polyline stroke="#191919" stroke-linejoin="round" stroke-width="0.5" stroke-dasharray="1,3,1,3,1,3,1,3" stroke-opacity="0.25" stroke-linecap="butt" fill="none" points="1041.01,861.664 1041.01,72.6121"/>
   <polyline stroke="#191919" stroke-linejoin="round" stroke-width="0.5" stroke-dasharray="1,3,1,3,1,3,1,3" stroke-opacity="0.25" stroke-linecap="butt" fill="none" points="1197.82,861.664 1197.82,72.6121"/>
   <polyline stroke="#191919" stroke-linejoin="round" stroke-width="0.5" stroke-dasharray="1,3,1,3,1,3,1,3" stroke-opacity="0.25" stroke-linecap="butt" fill="none" points="1276.22,861.664 1276.22,72.6121"/>
   <polyline stroke="#191919" stroke-linejoin="round" stroke-width="0.5" stroke-dasharray="1,3,1,3,1,3,1,3" stroke-opacity="0.25" stroke-linecap="butt" fill="none" points="1354.63,861.664 1354.63,72.6121"/>
   <polyline stroke="#191919" stroke-linejoin="round" stroke-width="0.5" stroke-dasharray="1,3,1,3,1,3,1,3" stroke-opacity="0.25" stroke-linecap="butt" fill="none" points="1433.03,861.664 1433.03,72.6121"/>
   <polyline stroke="#191919" stroke-linejoin="round" stroke-width="0.5" stroke-dasharray="1,3,1,3,1,3,1,3" stroke-opacity="0.25" stroke-linecap="butt" fill="none" points="1589.84,861.664 1589.84,72.6121"/>
   <polyline stroke="#191919" stroke-linejoin="round" stroke-width="0.5" stroke-dasharray="1,3,1,3,1,3,1,3" stroke-opacity="0.25" stroke-linecap="butt" fill="none" points="1668.25,861.664 1668.25,72.6121"/>
   <polyline stroke="#191919" stroke-linejoin="round" stroke-width="0.5" stroke-dasharray="1,3,1,3,1,3,1,3" stroke-opacity="0.25" stroke-linecap="butt" fill="none" points="1746.65,861.664 1746.65,72.6121"/>
   <polyline stroke="#191919" stroke-linejoin="round" stroke-width="0.5" stroke-dasharray="1,3,1,3,1,3,1,3" stroke-opacity="0.25" stroke-linecap="butt" fill="none" points="1825.06,861.664 1825.06,72.6121"/>
   <polyline stroke="#191919" stroke-linejoin="round" stroke-width="0.5" stroke-dasharray="1,3,1,3,1,3,1,3" stroke-opacity="0.25" stroke-linecap="butt" fill="none" points="1981.87,861.664 1981.87,72.6121"/>
   <polyline stroke="#191919" stroke-linejoin="round" stroke-width="0.5" stroke-dasharray="1,3,1,3,1,3,1,3" stroke-opacity="0.25" stroke-linecap="butt" fill="none" points="2060.27,861.664 2060.27,72.6121"/>
   <polyline stroke="#191919" stroke-linejoin="round" stroke-width="0.5" stroke-dasharray="1,3,1,3,1,3,1,3" stroke-opacity="0.25" stroke-linecap="butt" fill="none" points="2138.67,861.664 2138.67,72.6121"/>
   <polyline stroke="#191919" stroke-linejoin="round" stroke-width="0.5" stroke-dasharray="1,3,1,3,1,3,1,3" stroke-opacity="0.25" stroke-linecap="butt" fill="none" points="2217.08,861.664 2217.08,72.6121"/>
   <polyline stroke="#262626" stroke-linejoin="round" stroke-width="0.5" stroke-dasharray="16,0" stroke-opacity="0.15" stroke-linecap="butt" fill="none" points="335.369,861.664 335.369,72.6121"/>
   <polyline stroke="#262626" stroke-linejoin="round" stroke-width="0.5" stroke-dasharray="16,0" stroke-opacity="0.15" stroke-linecap="butt" fill="none" points="727.392,861.664 727.392,72.6121"/>
   <polyline stroke="#262626" stroke-linejoin="round" stroke-width="0.5" stroke-dasharray="16,0" stroke-opacity="0.15" stroke-linecap="butt" fill="none" points="1119.42,861.664 1119.42,72.6121"/>
   <polyline stroke="#262626" stroke-linejoin="round" stroke-width="0.5" stroke-dasharray="16,0" stroke-opacity="0.15" stroke-linecap="butt" fill="none" points="1511.44,861.664 1511.44,72.6121"/>
   <polyline stroke="#262626" stroke-linejoin="round" stroke-width="0.5" stroke-dasharray="16,0" stroke-opacity="0.15" stroke-linecap="butt" fill="none" points="1903.46,861.664 1903.46,72.6121"/>
   <polyline stroke="#262626" stroke-linejoin="round" stroke-width="0.5" stroke-dasharray="16,0" stroke-opacity="0.15" stroke-linecap="butt" fill="none" points="2295.48,861.664 2295.48,72.6121"/>
   <polyline stroke="#262626" stroke-linejoin="round" stroke-width="0.5" stroke-linecap="butt" fill="none" points="335.369,861.664 335.369,841.669"/>
   <polyline stroke="#262626" stroke-linejoin="round" stroke-width="0.5" stroke-linecap="butt" fill="none" points="335.369,72.6121 335.369,92.6066"/>
   <polyline stroke="#262626" stroke-linejoin="round" stroke-width="0.5" stroke-linecap="butt" fill="none" points="727.392,861.664 727.392,841.669"/>
   <polyline stroke="#262626" stroke-linejoin="round" stroke-width="0.5" stroke-linecap="butt" fill="none" points="727.392,72.6121 727.392,92.6066"/>
   <polyline stroke="#262626" stroke-linejoin="round" stroke-width="0.5" stroke-linecap="butt" fill="none" points="1119.42,861.664 1119.42,841.669"/>
   <polyline stroke="#262626" stroke-linejoin="round" stroke-width="0.5" stroke-linecap="butt" fill="none" points="1119.42,72.6121 1119.42,92.6066"/>
   <polyline stroke="#262626" stroke-linejoin="round" stroke-width="0.5" stroke-linecap="butt" fill="none" points="1511.44,861.664 1511.44,841.669"/>
   <polyline stroke="#262626" stroke-linejoin="round" stroke-width="0.5" stroke-linecap="butt" fill="none" points="1511.44,72.6121 1511.44,92.6066"/>
   <polyline stroke="#262626" stroke-linejoin="round" stroke-width="0.5" stroke-linecap="butt" fill="none" points="1903.46,861.664 1903.46,841.669"/>
   <polyline stroke="#262626" stroke-linejoin="round" stroke-width="0.5" stroke-linecap="butt" fill="none" points="1903.46,72.6121 1903.46,92.6066"/>
   <polyline stroke="#262626" stroke-linejoin="round" stroke-width="0.5" stroke-linecap="butt" fill="none" points="2295.48,861.664 2295.48,841.669"/>
   <polyline stroke="#262626" stroke-linejoin="round" stroke-width="0.5" stroke-linecap="butt" fill="none" points="2295.48,72.6121 2295.48,92.6066"/>
   <text font-family="FreeSans" font-weight="normal" font-style="normal" xml:space="preserve" transform="translate(326.369,877.164) rotate(-0,9,-8)" font-size="10">
    <tspan y="-0" x="0 6 12 " fill="rgb(38,38,38)">300</tspan>
   </text>
   <text font-family="FreeSans" font-weight="normal" font-style="normal" xml:space="preserve" transform="translate(718.392,877.164) rotate(-0,9,-8)" font-size="10">
    <tspan y="-0" x="0 6 12 " fill="rgb(38,38,38)">400</tspan>
   </text>
   <text font-family="FreeSans" font-weight="normal" font-style="normal" xml:space="preserve" transform="translate(1110.42,877.164) rotate(-0,9,-8)" font-size="10">
    <tspan y="-0" x="0 6 12 " fill="rgb(38,38,38)">500</tspan>
   </text>
   <text font-family="FreeSans" font-weight="normal" font-style="normal" xml:space="preserve" transform="translate(1502.44,877.164) rotate(-0,9,-8)" font-size="10">
    <tspan y="-0" x="0 6 12 " fill="rgb(38,38,38)">600</tspan>
   </text>
   <text font-family="FreeSans" font-weight="normal" font-style="normal" xml:space="preserve" transform="translate(1894.46,877.164) rotate(-0,9,-8)" font-size="10">
    <tspan y="-0" x="0 6 12 " fill="rgb(38,38,38)">700</tspan>
   </text>
   <text font-family="FreeSans" font-weight="normal" font-style="normal" xml:space="preserve" transform="translate(2286.48,877.164) rotate(-0,9,-8)" font-size="10">
    <tspan y="-0" x="0 6 12 " fill="rgb(38,38,38)">800</tspan>
   </text>
   <polyline stroke="#191919" stroke-linejoin="round" stroke-width="0.5" stroke-dasharray="1,3,1,3,1,3,1,3" stroke-opacity="0.25" stroke-linecap="butt" fill="none" points="335.369,822.211 2334.69,822.211"/>
   <polyline stroke="#191919" stroke-linejoin="round" stroke-width="0.5" stroke-dasharray="1,3,1,3,1,3,1,3" stroke-opacity="0.25" stroke-linecap="butt" fill="none" points="335.369,782.758 2334.69,782.758"/>
   <polyline stroke="#191919" stroke-linejoin="round" stroke-width="0.5" stroke-dasharray="1,3,1,3,1,3,1,3" stroke-opacity="0.25" stroke-linecap="butt" fill="none" points="335.369,743.306 2334.69,743.306"/>
   <polyline stroke="#191919" stroke-linejoin="round" stroke-width="0.5" stroke-dasharray="1,3,1,3,1,3,1,3" stroke-opacity="0.25" stroke-linecap="butt" fill="none" points="335.369,703.853 2334.69,703.853"/>
   <polyline stroke="#191919" stroke-linejoin="round" stroke-width="0.5" stroke-dasharray="1,3,1,3,1,3,1,3" stroke-opacity="0.25" stroke-linecap="butt" fill="none" points="335.369,624.948 2334.69,624.948"/>
   <polyline stroke="#191919" stroke-linejoin="round" stroke-width="0.5" stroke-dasharray="1,3,1,3,1,3,1,3" stroke-opacity="0.25" stroke-linecap="butt" fill="none" points="335.369,585.496 2334.69,585.496"/>
   <polyline stroke="#191919" stroke-linejoin="round" stroke-width="0.5" stroke-dasharray="1,3,1,3,1,3,1,3" stroke-opacity="0.25" stroke-linecap="butt" fill="none" points="335.369,546.043 2334.69,546.043"/>
   <polyline stroke="#191919" stroke-linejoin="round" stroke-width="0.5" stroke-dasharray="1,3,1,3,1,3,1,3" stroke-opacity="0.25" stroke-linecap="butt" fill="none" points="335.369,506.59 2334.69,506.59"/>
   <polyline stroke="#191919" stroke-linejoin="round" stroke-width="0.5" stroke-dasharray="1,3,1,3,1,3,1,3" stroke-opacity="0.25" stroke-linecap="butt" fill="none" points="335.369,427.685 2334.69,427.685"/>
   <polyline stroke="#191919" stroke-linejoin="round" stroke-width="0.5" stroke-dasharray="1,3,1,3,1,3,1,3" stroke-opacity="0.25" stroke-linecap="butt" fill="none" points="335.369,388.233 2334.69,388.233"/>
   <polyline stroke="#191919" stroke-linejoin="round" stroke-width="0.5" stroke-dasharray="1,3,1,3,1,3,1,3" stroke-opacity="0.25" stroke-linecap="butt" fill="none" points="335.369,348.78 2334.69,348.78"/>
   <polyline stroke="#191919" stroke-linejoin="round" stroke-width="0.5" stroke-dasharray="1,3,1,3,1,3,1,3" stroke-opacity="0.25" stroke-linecap="butt" fill="none" points="335.369,309.328 2334.69,309.328"/>
   <polyline stroke="#191919" stroke-linejoin="round" stroke-width="0.5" stroke-dasharray="1,3,1,3,1,3,1,3" stroke-opacity="0.25" stroke-linecap="butt" fill="none" points="335.369,230.422 2334.69,230.422"/>
   <polyline stroke="#191919" stroke-linejoin="round" stroke-width="0.5" stroke-dasharray="1,3,1,3,1,3,1,3" stroke-opacity="0.25" stroke-linecap="butt" fill="none" points="335.369,190.97 2334.69,190.97"/>
   <polyline stroke="#191919" stroke-linejoin="round" stroke-width="0.5" stroke-dasharray="1,3,1,3,1,3,1,3" stroke-opacity="0.25" stroke-linecap="butt" fill="none" points="335.369,151.517 2334.69,151.517"/>
   <polyline stroke="#191919" stroke-linejoin="round" stroke-width="0.5" stroke-dasharray="1,3,1,3,1,3,1,3" stroke-opacity="0.25" stroke-linecap="butt" fill="none" points="335.369,112.065 2334.69,112.065"/>
   <polyline stroke="#262626" stroke-linejoin="round" stroke-width="0.5" stroke-dasharray="16,0" stroke-opacity="0.15" stroke-linecap="butt" fill="none" points="335.369,861.664 2334.69,861.664"/>
   <polyline stroke="#262626" stroke-linejoin="round" stroke-width="0.5" stroke-dasharray="16,0" stroke-opacity="0.15" stroke-linecap="butt" fill="none" points="335.369,664.401 2334.69,664.401"/>
   <polyline stroke="#262626" stroke-linejoin="round" stroke-width="0.5" stroke-dasharray="16,0" stroke-opacity="0.15" stroke-linecap="butt" fill="none" points="335.369,467.138 2334.69,467.138"/>
   <polyline stroke="#262626" stroke-linejoin="round" stroke-width="0.5" stroke-dasharray="16,0" stroke-opacity="0.15" stroke-linecap="butt" fill="none" points="335.369,269.875 2334.69,269.875"/>
   <polyline stroke="#262626" stroke-linejoin="round" stroke-width="0.5" stroke-dasharray="16,0" stroke-opacity="0.15" stroke-linecap="butt" fill="none" points="335.369,72.6121 2334.69,72.6121"/>
   <polyline stroke="#262626" stroke-linejoin="round" stroke-width="0.5" stroke-linecap="butt" fill="none" points="335.369,861.664 355.366,861.664"/>
   <polyline stroke="#262626" stroke-linejoin="round" stroke-width="0.5" stroke-linecap="butt" fill="none" points="2334.69,861.664 2314.69,861.664"/>
   <polyline stroke="#262626" stroke-linejoin="round" stroke-width="0.5" stroke-linecap="butt" fill="none" points="335.369,664.401 355.366,664.401"/>
   <polyline stroke="#262626" stroke-linejoin="round" stroke-width="0.5" stroke-linecap="butt" fill="none" points="2334.69,664.401 2314.69,664.401"/>
   <polyline stroke="#262626" stroke-linejoin="round" stroke-width="0.5" stroke-linecap="butt" fill="none" points="335.369,467.138 355.366,467.138"/>
   <polyline stroke="#262626" stroke-linejoin="round" stroke-width="0.5" stroke-linecap="butt" fill="none" points="2334.69,467.138 2314.69,467.138"/>
   <polyline stroke="#262626" stroke-linejoin="round" stroke-width="0.5" stroke-linecap="butt" fill="none" points="335.369,269.875 355.366,269.875"/>
   <polyline stroke="#262626" stroke-linejoin="round" stroke-width="0.5" stroke-linecap="butt" fill="none" points="2334.69,269.875 2314.69,269.875"/>
   <polyline stroke="#262626" stroke-linejoin="round" stroke-width="0.5" stroke-linecap="butt" fill="none" points="335.369,72.6121 355.366,72.6121"/>
   <polyline stroke="#262626" stroke-linejoin="round" stroke-width="0.5" stroke-linecap="butt" fill="none" points="2334.69,72.6121 2314.69,72.6121"/>
   <text font-family="FreeSans" font-weight="normal" font-style="normal" xml:space="preserve" transform="translate(324.368,865.664) rotate(-0,6,-4)" font-size="10">
    <tspan y="-0" x="0 " fill="rgb(38,38,38)">0</tspan>
   </text>
   <text font-family="FreeSans" font-weight="normal" font-style="normal" xml:space="preserve" transform="translate(306.368,668.401) rotate(-0,24,-4)" font-size="10">
    <tspan y="-0" x="0 6 12 18 " fill="rgb(38,38,38)">5000</tspan>
   </text>
   <text font-family="FreeSans" font-weight="normal" font-style="normal" xml:space="preserve" transform="translate(300.368,471.138) rotate(-0,30,-4)" font-size="10">
    <tspan y="-0" x="0 6 12 18 24 " fill="rgb(38,38,38)">10000</tspan>
   </text>
   <text font-family="FreeSans" font-weight="normal" font-style="normal" xml:space="preserve" transform="translate(300.368,273.875) rotate(-0,30,-4)" font-size="10">
    <tspan y="-0" x="0 6 12 18 24 " fill="rgb(38,38,38)">15000</tspan>
   </text>
   <text font-family="FreeSans" font-weight="normal" font-style="normal" xml:space="preserve" transform="translate(300.368,76.6121) rotate(-0,30,-4)" font-size="10">
    <tspan y="-0" x="0 6 12 18 24 " fill="rgb(38,38,38)">20000</tspan>
   </text>
   <polyline stroke="#262626" stroke-linejoin="round" stroke-width="0.5" stroke-dasharray="16,0" stroke-linecap="square" fill="none" points="335.369,861.664 2334.69,861.664"/>
   <polyline stroke="#262626" stroke-linejoin="round" stroke-width="0.5" stroke-dasharray="16,0" stroke-linecap="square" fill="none" points="335.369,72.6121 2334.69,72.6121"/>
   <polyline stroke="#262626" stroke-linejoin="round" stroke-width="0.5" stroke-dasharray="16,0" stroke-linecap="square" fill="none" points="335.369,861.664 335.369,72.6121"/>
   <polyline stroke="#262626" stroke-linejoin="round" stroke-width="0.5" stroke-dasharray="16,0" stroke-linecap="square" fill="none" points="2334.69,861.664 2334.69,72.6121"/>
  </g>
 </g>
</svg>
